#N canvas 456 228 595 606 12;
#X obj 274 216 tgl 19 0 empty empty empty 0 -10 0 12 #fcfcfc #000000 #000000 0 1;
#X obj 256 259 *~;
#X text 238 108 no pedal;
#X obj 299 297 env~;
#X obj 300 366 sig~;
#X obj 274 181 sel 0;
#X obj 300 333 / 80;
#X obj 257 400 /~;
#X obj 208 147 inlet~;
#X obj 274 146 inlet;
#X obj 257 443 outlet~;
#X connect 0 0 1 1;
#X connect 1 0 3 0;
#X connect 1 0 7 0;
#X connect 3 0 6 0;
#X connect 4 0 7 1;
#X connect 5 0 0 0;
#X connect 6 0 4 0;
#X connect 7 0 10 0;
#X connect 8 0 1 0;
#X connect 9 0 5 0;
