#N canvas 408 245 740 571 12;
#X obj 422 360 env~;
#X obj 423 429 sig~;
#X obj 394 463 /~;
#X obj 282 129 tgl 19 0 empty empty empty 0 -10 0 12 #fcfcfc #000000 #000000 0 1;
#X text 396 102 delay pedal;
#X obj 257 175 *~;
#X obj 343 265 *~ 0.6;
#X obj 454 236 / 127;
#X obj 454 271 * 500;
#X obj 257 224 delwrite~ delay 1000;
#X obj 391 318 delread~ delay;
#X obj 422 395 / 80;
#X obj 282 96 sel 4;
#X obj 282 66 inlet;
#X obj 220 65 inlet~;
#X obj 454 196 inlet;
#X obj 394 505 outlet~;
#X connect 0 0 11 0;
#X connect 1 0 2 1;
#X connect 2 0 16 0;
#X connect 3 0 5 1;
#X connect 5 0 9 0;
#X connect 6 0 9 0;
#X connect 7 0 8 0;
#X connect 8 0 10 0;
#X connect 10 0 2 0;
#X connect 10 0 0 0;
#X connect 10 0 6 0;
#X connect 11 0 1 0;
#X connect 12 0 3 0;
#X connect 13 0 12 0;
#X connect 14 0 5 0;
#X connect 15 0 7 0;
