#N canvas 150 188 945 710 12;
#X obj 250 175 tgl 19 0 empty empty empty 0 -10 0 12 #fcfcfc #000000 #000000 0 1;
#X obj 232 215 *~;
#X obj 296 307 clip~;
#X obj 288 240 * -0.3;
#X obj 351 240 * 0.3;
#X obj 337 340 env~;
#X obj 338 409 sig~;
#X obj 295 439 /~;
#X obj 337 376 / 80;
#X obj 250 143 sel 1;
#X obj 331 159 / 127;
#X obj 183 103 inlet~;
#X obj 250 105 inlet;
#X obj 331 120 inlet;
#X obj 295 485 outlet~;
#X connect 0 0 1 1;
#X connect 1 0 2 0;
#X connect 2 0 5 0;
#X connect 2 0 7 0;
#X connect 3 0 2 1;
#X connect 4 0 2 2;
#X connect 5 0 8 0;
#X connect 6 0 7 1;
#X connect 7 0 14 0;
#X connect 8 0 6 0;
#X connect 9 0 0 0;
#X connect 10 0 3 0;
#X connect 10 0 4 0;
#X connect 11 0 1 0;
#X connect 12 0 9 0;
#X connect 13 0 10 0;
