#N canvas 601 287 673 602 12;
#X obj 282 169 tgl 19 0 empty empty empty 0 -10 0 12 #fcfcfc #000000 #000000 0 1;
#X obj 264 211 *~;
#X obj 345 164 / 127;
#X text 295 46 ov pedal;
#X obj 298 349 lop~ 3000;
#X obj 298 261 clip~;
#X obj 328 384 env~;
#X obj 329 453 sig~;
#X obj 300 487 /~;
#X obj 281 127 sel 2;
#X obj 209 167 inlet~;
#X obj 281 93 inlet;
#X obj 344 92 inlet;
#X obj 301 527 outlet~;
#X obj 298 302 expr~ $v1 * (1 - abs($v1) * 0.8);
#X obj 398 214 * 0.1;
#X obj 334 213 * -0.05;
#X obj 328 420 / 80;
#X obj 223 324 *~ 10;
#X connect 0 0 1 1;
#X connect 1 0 5 0;
#X connect 2 0 15 0;
#X connect 2 0 16 0;
#X connect 4 0 6 0;
#X connect 4 0 8 0;
#X connect 5 0 14 0;
#X connect 6 0 17 0;
#X connect 7 0 8 1;
#X connect 8 0 13 0;
#X connect 9 0 0 0;
#X connect 10 0 1 0;
#X connect 11 0 9 0;
#X connect 12 0 2 0;
#X connect 14 0 18 0;
#X connect 15 0 5 2;
#X connect 16 0 5 1;
#X connect 17 0 7 0;
#X connect 18 0 4 0;
