#N canvas 523 281 892 516 10;
#X obj 506 127 hsl 128 15 0 10 0 0 empty empty empty -2 -8 0 10 #fcfcfc #000000 #000000 0 1;
#X obj 344 234 *~ 2;
#X obj 344 254 +~ 2;
#X obj 383 276 *~ 2;
#X obj 382 299 +~ 2;
#X obj 130 208 delwrite~ phase2 100;
#X obj 382 325 vd~ phase2;
#X obj 383 232 wrap~;
#X obj 353 177 phasor~;
#X obj 382 211 +~ 0.5;
#X obj 344 211 cos~;
#X obj 383 252 cos~;
#X obj 509 224 hsl 128 15 0 3 0 0 empty empty empty -2 -8 0 10 #fcfcfc #000000 #000000 0 1;
#X obj 382 348 *~ 0.8;
#X obj 344 409 *~ 0.8;
#X obj 453 436 s~ output;
#X obj 20 234 r~ output;
#X obj 538 343 hsl 128 15 -0.9 0.9 0 0 empty empty empty -2 -8 0 10 #fcfcfc #000000 #000000 0 1;
#X text 258 142 <-- Write to delay lines;
#X text 454 322 <-- Read from delay line 2;
#X text 448 386 <-- Read from delay line 1;
#X obj 345 386 vd~ phase1;
#X obj 131 148 delwrite~ phase1 100;
#X text 416 177 <-- Low Frequency Oscillator (LFO);
#X floatatom 503 151 5 0 0 0 - - - 0;
#X floatatom 507 250 5 0 0 0 - - - 0;
#X floatatom 535 364 5 0 0 0 - - - 0;
#X text 646 123 <-- Speed (try 0.7);
#X text 651 222 <-- Depth (try 2.4);
#X text 678 343 <-- Feedback (try -0.3);
#X text 449 517 comment;
#X obj 96 402 outlet~;
#X obj 101 82 tgl 19 0 empty empty empty 0 -10 0 12 #fcfcfc #000000 #000000 0 1;
#X obj 83 122 *~;
#X obj 34 10 inlet~;
#X obj 101 12 inlet;
#X obj 101 50 sel 8;
#X obj 138 268 env~;
#X obj 139 337 sig~;
#X obj 96 367 /~;
#X obj 138 304 / 80;
#X connect 0 0 8 0;
#X connect 0 0 24 0;
#X connect 1 0 2 0;
#X connect 2 0 21 0;
#X connect 3 0 4 0;
#X connect 4 0 6 0;
#X connect 6 0 13 0;
#X connect 6 0 15 0;
#X connect 7 0 11 0;
#X connect 8 0 9 0;
#X connect 8 0 10 0;
#X connect 9 0 7 0;
#X connect 10 0 1 0;
#X connect 11 0 3 0;
#X connect 12 0 1 1;
#X connect 12 0 3 1;
#X connect 12 0 2 1;
#X connect 12 0 4 1;
#X connect 12 0 25 0;
#X connect 13 0 5 0;
#X connect 14 0 22 0;
#X connect 16 0 39 0;
#X connect 16 0 37 0;
#X connect 17 0 14 1;
#X connect 17 0 13 1;
#X connect 17 0 26 0;
#X connect 21 0 14 0;
#X connect 21 0 15 0;
#X connect 32 0 33 1;
#X connect 33 0 22 0;
#X connect 33 0 5 0;
#X connect 33 0 39 0;
#X connect 33 0 37 0;
#X connect 34 0 33 0;
#X connect 35 0 36 0;
#X connect 36 0 32 0;
#X connect 37 0 40 0;
#X connect 38 0 39 1;
#X connect 39 0 31 0;
#X connect 40 0 38 0;
