#N canvas 266 304 528 531 12;
#X obj 224 272 rev1~;
#X obj 251 147 tgl 19 0 empty empty empty 0 -10 0 12 #fcfcfc #000000 #000000 0 1;
#X obj 224 188 *~;
#X obj 253 311 env~;
#X obj 254 380 sig~;
#X obj 225 414 /~;
#X obj 336 172 / 127;
#X text 227 34 reverb pedal;
#X obj 253 347 / 80;
#X obj 336 213 * 70;
#X obj 251 113 sel 5;
#X obj 181 83 inlet~;
#X obj 251 82 inlet;
#X obj 336 132 inlet;
#X obj 225 456 outlet~;
#X connect 0 0 3 0;
#X connect 0 0 5 0;
#X connect 1 0 2 1;
#X connect 2 0 0 0;
#X connect 3 0 8 0;
#X connect 4 0 5 1;
#X connect 5 0 14 0;
#X connect 6 0 9 0;
#X connect 8 0 4 0;
#X connect 9 0 0 1;
#X connect 10 0 1 0;
#X connect 11 0 2 0;
#X connect 12 0 10 0;
#X connect 13 0 6 0;
