#N canvas 554 232 644 596 10;
#X obj 26 76 cnv 15 200 200 empty empty empty 20 12 0 14 #00fc04 #404040 0;
#X obj 268 76 cnv 15 160 300 empty empty empty 20 12 0 14 #fc8000 #404040 0;
#X obj 178 420 cnv 15 200 100 empty empty empty 20 12 0 14 #00f8fc #404040 0;
#X obj 257 469 *~;
#X obj 200 443 line~;
#X obj 280 254 osc~;
#X obj 289 326 +~ 440;
#X obj 353 186 mtof;
#X obj 372 223 *;
#X msg 325 129 1;
#X obj 278 184 osc~;
#X obj 279 205 *~ 1;
#X obj 277 157 *;
#X msg 284 128 1;
#X obj 280 230 +~ 1;
#X obj 348 11 loadbang;
#X obj 56 135 sigmund~;
#X obj 35 187 / 40;
#X obj 35 167 expr if($f1>$f2 \, $f1-$f2 \, 0);
#X msg 199 138 35;
#X obj 93 232 *;
#X obj 93 253 expr (1-$f1)*3000;
#X obj 361 282 line~;
#X obj 365 255 pack 0 10;
#X obj 289 301 *~;
#X obj 289 353 osc~;
#X text 437 130 This is where the sound is;
#X text 438 143 made using FM synthesis.;
#X text 438 156 The sweeping sound is controled;
#X text 439 170 by the strength of the signal;
#X text 439 184 from the guitar.;
#X text 20 411 Here we use the strength;
#X text 18 424 (amplitude) of the signal;
#X text 18 438 to control the volume;
#X text 18 450 of the output.;
#X obj 322 306 * 1;
#X obj 441 240 hradio 30 1 0 2 empty empty empty 0 -8 0 10 #fcfcfc #000000 #000000 0;
#X obj 441 289 sel 0 1;
#X msg 434 317 1;
#X msg 464 317 0.5;
#X obj 200 421 pack 0 5;
#X text 505 245 <-- Change octave;
#X text 394 531 Pierre Massat \, GuitarExtended \, 2012;
#X obj 59 29 inlet~;
#X obj 260 546 outlet~;
#X obj 382 427 env~;
#X obj 383 496 sig~;
#X obj 340 526 /~;
#X obj 133 74 tgl 19 0 empty empty empty 0 -10 0 12 #fcfcfc #000000 #000000 0 1;
#X obj 115 114 *~;
#X obj 133 4 inlet;
#X obj 133 42 sel 10;
#X obj 382 463 / 30;
#X connect 3 0 45 0;
#X connect 3 0 47 0;
#X connect 4 0 3 1;
#X connect 5 0 24 0;
#X connect 6 0 25 0;
#X connect 7 0 8 0;
#X connect 7 0 12 0;
#X connect 7 0 35 0;
#X connect 8 0 14 1;
#X connect 9 0 8 1;
#X connect 10 0 11 0;
#X connect 11 0 14 0;
#X connect 12 0 10 0;
#X connect 13 0 12 1;
#X connect 14 0 5 0;
#X connect 15 0 9 0;
#X connect 15 0 13 0;
#X connect 15 0 19 0;
#X connect 16 0 7 0;
#X connect 16 1 18 0;
#X connect 17 0 20 1;
#X connect 17 0 20 0;
#X connect 17 0 40 0;
#X connect 18 0 17 0;
#X connect 19 0 18 1;
#X connect 20 0 21 0;
#X connect 21 0 23 0;
#X connect 22 0 24 1;
#X connect 23 0 22 0;
#X connect 24 0 6 0;
#X connect 25 0 3 0;
#X connect 35 0 6 1;
#X connect 36 0 37 0;
#X connect 37 0 38 0;
#X connect 37 1 39 0;
#X connect 38 0 35 1;
#X connect 39 0 35 1;
#X connect 40 0 4 0;
#X connect 43 0 49 0;
#X connect 45 0 52 0;
#X connect 46 0 47 1;
#X connect 47 0 44 0;
#X connect 48 0 49 1;
#X connect 49 0 16 0;
#X connect 50 0 51 0;
#X connect 51 0 48 0;
#X connect 52 0 46 0;
