#N canvas 276 94 1105 818 10;
#X obj 62 356 delwrite~ G09-del 5000;
#X obj 235 64 env~;
#X floatatom 234 89 5 0 0 0 - - - 0;
#X obj 234 139 change;
#X obj 234 162 == 1;
#X floatatom 282 163 5 0 0 0 - - - 0;
#X obj 437 220 sel 1;
#X obj 692 582 rev1~;
#X obj 922 76 loadbang;
#X floatatom 403 142 5 0 0 0 - - - 0;
#X obj 734 581 rev1~;
#X msg 504 280 0;
#X obj 437 247 t b b;
#X obj 63 335 *~;
#X obj 79 311 line~;
#X obj 79 291 pack 0 5;
#X obj 149 591 line~;
#X obj 149 570 pack 0 5;
#X obj 91 609 *~;
#X obj 149 549 expr 1-$f1;
#X obj 92 521 *~ 0.98;
#X obj 694 612 *~;
#X obj 940 585 line~;
#X obj 938 552 pack 0 5;
#X obj 939 406 vsl 15 128 0.001 1 1 0 empty volume Reverb_volume 0 -9 0 10 #fcfcfc #000000 #000000 0 1;
#X obj 92 447 line~;
#X obj 92 428 pack 0 5;
#X obj 92 468 vd~ G09-del 60;
#X obj 309 464 hsl 128 15 50 150 0 0 empty length_delay Length_of_sustain_delay -2 -8 0 10 #fcfcfc #000000 #000000 0 1;
#N canvas 0 0 1024 692 pitchshifter 0;
#X obj 125 393 *~;
#X obj 248 330 line~;
#X floatatom 248 148 0 0 0 0 - - - 0;
#X obj 248 304 pack 0 200;
#X obj 189 224 * 0.001;
#X obj 357 400 line~;
#X obj 357 375 pack 0 200;
#X floatatom 357 324 0 0 0 0 - - - 0;
#X obj 357 298 r delay;
#X obj 125 419 +~;
#X obj 62 445 cos~;
#X obj 62 472 *~;
#X obj 62 507 +~;
#X obj 149 352 wrap~;
#X obj 294 395 *~;
#X obj 294 428 +~;
#X obj 231 455 cos~;
#X obj 231 482 *~;
#X obj 149 325 +~ 0.5;
#X obj 62 393 -~ 0.5;
#X obj 62 419 *~ 0.5;
#X obj 231 394 -~ 0.5;
#X obj 231 427 *~ 0.5;
#X text 135 128 <-- transposition;
#X text 134 141 (halftones);
#X text 125 198 speed;
#X text 124 212 change;
#X text 292 147 <--window (msec);
#X text 97 287 tape head;
#X obj 62 351 phasor~;
#X obj 357 351 max 1.5;
#X text 360 257 delay;
#X text 357 275 (msec);
#X text 98 300 rotation freq;
#X obj 125 445 vd~ G09-del;
#X obj 294 457 vd~ G09-del;
#X obj 62 152 *~ 0.05776;
#X obj 62 178 exp~;
#X obj 62 231 -~ 1;
#X obj 62 257 *~ -1;
#X obj 62 294 /~;
#X obj 179 264 sig~;
#X obj 248 178 max 1;
#X obj 62 125 line~;
#X msg 248 121 100;
#X obj 132 250 t b f;
#X obj 88 562 outlet~;
#X obj 63 55 inlet;
#X obj 251 69 inlet;
#X text 536 114 Based on Miller Puckette's G09.pitchshift.pd example;
#X text 536 131 (slightly adapted with signal objects for smooth transposition).;
#X connect 0 0 9 0;
#X connect 1 0 0 1;
#X connect 1 0 14 1;
#X connect 2 0 42 0;
#X connect 3 0 1 0;
#X connect 4 0 45 0;
#X connect 5 0 9 1;
#X connect 5 0 15 1;
#X connect 6 0 5 0;
#X connect 7 0 30 0;
#X connect 8 0 7 0;
#X connect 9 0 34 0;
#X connect 10 0 11 0;
#X connect 11 0 12 0;
#X connect 12 0 46 0;
#X connect 13 0 14 0;
#X connect 13 0 21 0;
#X connect 14 0 15 0;
#X connect 15 0 35 0;
#X connect 16 0 17 0;
#X connect 17 0 12 1;
#X connect 18 0 13 0;
#X connect 19 0 20 0;
#X connect 20 0 10 0;
#X connect 21 0 22 0;
#X connect 22 0 16 0;
#X connect 29 0 0 0;
#X connect 29 0 19 0;
#X connect 29 0 18 0;
#X connect 30 0 6 0;
#X connect 34 0 11 1;
#X connect 35 0 17 1;
#X connect 36 0 37 0;
#X connect 37 0 38 0;
#X connect 38 0 39 0;
#X connect 39 0 40 0;
#X connect 40 0 29 0;
#X connect 41 0 40 1;
#X connect 42 0 4 0;
#X connect 42 0 3 0;
#X connect 43 0 36 0;
#X connect 44 0 2 0;
#X connect 45 0 40 0;
#X connect 45 1 41 0;
#X connect 47 0 43 0;
#X connect 48 0 44 0;
#X restore 444 316 pd pitchshifter;
#X obj 309 392 hsl 128 15 5 50 0 0 empty attack Attack-Decay -2 -8 0 10 #fcfcfc #000000 #000000 0 1;
#X floatatom 305 425 5 0 0 0 - - - 0;
#X obj 403 121 + 70;
#X obj 406 101 hsl 300 15 0 15 0 0 empty empty empty -2 -8 0 10 #fcfcfc #000000 #000000 0 1;
#X obj 763 418 hsl 128 15 0 80 0 0 empty rev1tail Reverb_1_-_Tail -2 -8 0 10 #fcfcfc #000000 #000000 0 1;
#X obj 763 494 hsl 128 15 0 80 0 0 empty rev2tail Reverb_2_-_Tail -2 -8 0 10 #fcfcfc #000000 #000000 0 1;
#X floatatom 306 488 5 0 0 0 - - - 0;
#X floatatom 760 442 5 0 0 0 - - - 0;
#X floatatom 760 520 5 0 0 0 - - - 0;
#X obj 698 507 *~ 1;
#X msg 421 279 -18 9000;
#X msg 534 245 set -18 \$1;
#X obj 537 222 hsl 300 15 1000 9000 0 0 empty speed Speed_of_the_pitchshifter -2 -8 0 10 #fcfcfc #000000 #000000 0 1;
#X msg 918 106 \; pd dsp 1 \; length_delay 60 \; attack 50 \; rev1tail 50 \; rev2tail 60 \; volume 0.7 \; speed 9000 \;;
#X obj 234 113 > 78;
#X text 405 34 Adjust the threshold of the trigger;
#X text 404 64 to change the minimum value in the [+ 70];
#X text 404 77 object.);
#X text 402 49 (Depends on your instrument. You may want;
#X text 439 141 comment;
#X text 288 520 Parameters of the sustain;
#X text 802 352 Parameters of the reverb;
#X text 667 647 GuitarExtended \, Pierre Massat \, 2012;
#X text 665 660 (Adapted from the pitchshift example by Miller Puckette.;
#X text 666 673 Original idea by Lorenzo Sutton.);
#X obj 289 53 inlet~;
#X obj 275 706 outlet~;
#X obj 407 685 env~;
#X obj 408 754 sig~;
#X obj 365 784 /~;
#X obj 407 721 / 80;
#X obj 354 114 tgl 19 0 empty empty empty 0 -10 0 12 #fcfcfc #000000 #000000 0 1;
#X obj 336 154 *~;
#X obj 354 44 inlet;
#X obj 354 82 sel 11;
#X connect 1 0 2 0;
#X connect 2 0 44 0;
#X connect 3 0 4 0;
#X connect 3 0 5 0;
#X connect 3 0 15 0;
#X connect 3 0 19 0;
#X connect 4 0 6 0;
#X connect 6 0 12 0;
#X connect 7 0 21 0;
#X connect 8 0 29 1;
#X connect 8 0 43 0;
#X connect 9 0 44 1;
#X connect 10 0 21 0;
#X connect 11 0 29 0;
#X connect 12 0 40 0;
#X connect 12 1 11 0;
#X connect 13 0 0 0;
#X connect 14 0 13 1;
#X connect 15 0 14 0;
#X connect 16 0 18 1;
#X connect 17 0 16 0;
#X connect 18 0 0 0;
#X connect 19 0 17 0;
#X connect 20 0 18 0;
#X connect 21 0 57 0;
#X connect 21 0 59 0;
#X connect 22 0 21 1;
#X connect 23 0 22 0;
#X connect 24 0 23 0;
#X connect 25 0 27 0;
#X connect 26 0 25 0;
#X connect 27 0 20 0;
#X connect 28 0 26 0;
#X connect 28 0 36 0;
#X connect 29 0 39 0;
#X connect 30 0 31 0;
#X connect 30 0 15 1;
#X connect 30 0 17 1;
#X connect 32 0 9 0;
#X connect 33 0 32 0;
#X connect 34 0 7 1;
#X connect 34 0 37 0;
#X connect 35 0 10 1;
#X connect 35 0 38 0;
#X connect 39 0 7 0;
#X connect 39 0 10 0;
#X connect 40 0 29 0;
#X connect 41 0 40 0;
#X connect 42 0 41 0;
#X connect 44 0 3 0;
#X connect 55 0 62 0;
#X connect 57 0 60 0;
#X connect 58 0 59 1;
#X connect 59 0 56 0;
#X connect 60 0 58 0;
#X connect 61 0 62 1;
#X connect 62 0 1 0;
#X connect 62 0 57 0;
#X connect 62 0 59 0;
#X connect 62 0 13 0;
#X connect 63 0 64 0;
#X connect 64 0 61 0;
