#N canvas 345 127 564 534 12;
#X obj 209 113 tgl 19 0 empty empty empty 0 -10 0 12 #fcfcfc #000000 #000000 0 1;
#X obj 186 157 *~;
#X obj 260 344 env~;
#X obj 261 413 sig~;
#X obj 232 447 /~;
#X obj 298 141 / 127;
#X obj 260 380 / 80;
#X text 290 49 tone pedal;
#X obj 187 205 lop~ 500;
#X obj 280 205 hip~ 500;
#X obj 360 213 expr~ 1 - $v1;
#X obj 187 254 *~;
#X obj 281 257 *~;
#X obj 228 306 +~;
#X obj 209 83 sel 6;
#X obj 152 52 inlet~;
#X obj 209 53 inlet;
#X obj 298 101 inlet;
#X obj 232 490 outlet~;
#X connect 0 0 1 1;
#X connect 1 0 8 0;
#X connect 1 0 9 0;
#X connect 2 0 6 0;
#X connect 3 0 4 1;
#X connect 4 0 18 0;
#X connect 5 0 10 0;
#X connect 5 0 12 1;
#X connect 6 0 3 0;
#X connect 8 0 11 0;
#X connect 9 0 12 0;
#X connect 10 0 11 1;
#X connect 11 0 13 0;
#X connect 12 0 13 1;
#X connect 13 0 2 0;
#X connect 13 0 4 0;
#X connect 14 0 0 0;
#X connect 15 0 1 0;
#X connect 16 0 14 0;
#X connect 17 0 5 0;
