#N canvas 290 206 558 566 12;
#X obj 259 212 tgl 19 0 empty empty empty 0 -10 0 12 #fcfcfc #000000 #000000 0 1;
#X obj 236 252 *~;
#X obj 280 339 env~;
#X obj 281 408 sig~;
#X obj 252 442 /~;
#X obj 329 137 / 127;
#X obj 280 375 / 80;
#X text 229 59 tremolo pedal;
#X obj 251 303 *~;
#X obj 329 201 osc~;
#X obj 329 170 * 15;
#X obj 329 231 /~ 4;
#X obj 329 263 +~ 0.5;
#X obj 259 183 sel 7;
#X obj 198 152 inlet~;
#X obj 259 153 inlet;
#X obj 329 97 inlet;
#X obj 240 485 outlet~;
#X connect 0 0 1 1;
#X connect 1 0 8 0;
#X connect 2 0 6 0;
#X connect 3 0 4 1;
#X connect 4 0 17 0;
#X connect 5 0 10 0;
#X connect 6 0 3 0;
#X connect 8 0 4 0;
#X connect 8 0 2 0;
#X connect 9 0 11 0;
#X connect 10 0 9 0;
#X connect 11 0 12 0;
#X connect 12 0 8 1;
#X connect 13 0 0 0;
#X connect 14 0 1 0;
#X connect 15 0 13 0;
#X connect 16 0 5 0;
