#N canvas 243 78 919 701 12;
#X obj 275 255 tgl 19 0 empty empty empty 0 -10 0 12 #fcfcfc #000000 #000000 0 1;
#X obj 258 306 *~;
#X obj 301 399 vcf~;
#X floatatom 418 450 5 0 0 0 - - - 0;
#X obj 418 307 vsl 15 128 0 20 0 0 empty empty empty 0 -9 0 10 #fcfcfc #000000 #000000 0 1;
#X obj 472 159 hsl 128 15 700 6000 0 0 empty empty empty -2 -8 0 10 #fcfcfc #000000 #000000 0 1;
#X obj 449 247 hsl 128 15 0 700 0 0 empty empty empty -2 -8 0 10 #fcfcfc #000000 #000000 0 1;
#X floatatom 446 269 6 0 0 0 - - - 0;
#X floatatom 469 208 6 0 0 0 - - - 0;
#X obj 469 182 -;
#X obj 347 273 +~ 200;
#X obj 346 191 *~ 1500;
#X text 604 157 <-- Maximum of the freq. range;
#X text 582 244 <-- Minimum of the freq. range;
#X obj 346 148 / 127;
#X obj 520 80 loadbang;
#X msg 542 293 200;
#X obj 562 330 loadbang;
#X obj 452 357 loadbang;
#X msg 451 318 5;
#X msg 469 120 1700;
#X text 324 56 wah pedal;
#X obj 329 436 env~;
#X obj 330 505 sig~;
#X obj 301 539 /~;
#X obj 275 213 sel 3;
#X obj 185 158 inlet~;
#X obj 274 160 inlet;
#X obj 346 108 inlet;
#X obj 301 582 outlet~;
#X obj 329 472 / 100;
#X connect 0 0 1 1;
#X connect 1 0 2 0;
#X connect 2 0 22 0;
#X connect 2 0 24 0;
#X connect 4 0 3 0;
#X connect 4 0 2 2;
#X connect 5 0 9 0;
#X connect 6 0 7 0;
#X connect 6 0 9 1;
#X connect 6 0 10 1;
#X connect 9 0 8 0;
#X connect 9 0 11 1;
#X connect 10 0 2 1;
#X connect 11 0 10 0;
#X connect 14 0 11 0;
#X connect 15 0 20 0;
#X connect 16 0 6 0;
#X connect 17 0 16 0;
#X connect 18 0 19 0;
#X connect 19 0 4 0;
#X connect 20 0 5 0;
#X connect 22 0 30 0;
#X connect 23 0 24 1;
#X connect 24 0 29 0;
#X connect 25 0 0 0;
#X connect 26 0 1 0;
#X connect 27 0 25 0;
#X connect 28 0 14 0;
#X connect 30 0 23 0;
