#N canvas 305 70 968 868 12;
#X obj 72 50 tabplay~ audioArray;
#X obj 72 19 bng 19 250 50 0 empty empty empty 0 -10 0 12 #fcfcfc #000000 #000000;
#X obj 72 82 *~ 1.85;
#X msg 636 526 read -resize guitar_sample.wav audioArray;
#X obj 636 557 soundfiler;
#X obj 636 494 loadbang;
#X obj 228 91 notein;
#X obj 126 182 dac~;
#X obj 302 55 tabplay~ audioArray;
#X obj 302 24 bng 19 250 50 0 empty empty empty 0 -10 0 12 #fcfcfc #000000 #000000;
#X obj 302 87 *~ 1.85;
#X obj 393 95 notein;
#X obj 356 187 dac~;
#X obj 127 130 pedals/clean;
#X obj 356 135 pedals/fuzz;
#X obj 456 95 ctlin;
#X obj 83 486 tabplay~ audioArray;
#X obj 83 455 bng 19 250 50 0 empty empty empty 0 -10 0 12 #fcfcfc #000000 #000000;
#X obj 83 518 *~ 1.85;
#X obj 174 526 notein;
#X obj 137 618 dac~;
#X obj 237 526 ctlin;
#X obj 317 491 tabplay~ audioArray;
#X obj 317 460 bng 19 250 50 0 empty empty empty 0 -10 0 12 #fcfcfc #000000 #000000;
#X obj 317 523 *~ 1.85;
#X obj 408 531 notein;
#X obj 371 623 dac~;
#X obj 471 531 ctlin;
#X obj 71 259 tabplay~ audioArray;
#X obj 71 228 bng 19 250 50 0 empty empty empty 0 -10 0 12 #fcfcfc #000000 #000000;
#X obj 71 291 *~ 1.85;
#X obj 162 299 notein;
#X obj 125 391 dac~;
#X obj 225 299 ctlin;
#X obj 314 260 tabplay~ audioArray;
#X obj 314 229 bng 19 250 50 0 empty empty empty 0 -10 0 12 #fcfcfc #000000 #000000;
#X obj 314 292 *~ 1.85;
#X obj 405 300 notein;
#X obj 368 392 dac~;
#X obj 468 300 ctlin;
#X obj 111 696 tabplay~ audioArray;
#X obj 111 665 bng 19 250 50 0 empty empty empty 0 -10 0 12 #fcfcfc #000000 #000000;
#X obj 111 728 *~ 1.85;
#X obj 202 736 notein;
#X obj 165 828 dac~;
#X obj 265 736 ctlin;
#X obj 334 698 tabplay~ audioArray;
#X obj 334 667 bng 19 250 50 0 empty empty empty 0 -10 0 12 #fcfcfc #000000 #000000;
#X obj 334 730 *~ 1.85;
#X obj 425 738 notein;
#X obj 388 830 dac~;
#X obj 488 738 ctlin;
#X obj 137 566 pedals/overdrive;
#X obj 371 571 pedals/wah;
#X obj 125 339 pedals/tone;
#X obj 368 340 pedals/delay;
#X obj 165 776 pedals/tremolo;
#X obj 388 778 pedals/reverb;
#N canvas 0 22 450 278 (subpatch) 0;
#X array audioArray 1.34554e+06 float 2;
#X coords 0 1 1.34554e+06 -1 200 140 1;
#X restore 632 336 graph;
#X connect 0 0 2 0;
#X connect 1 0 0 0;
#X connect 2 0 13 0;
#X connect 3 0 4 0;
#X connect 5 0 3 0;
#X connect 6 0 13 1;
#X connect 8 0 10 0;
#X connect 9 0 8 0;
#X connect 10 0 14 0;
#X connect 11 0 14 1;
#X connect 13 0 7 0;
#X connect 13 0 7 1;
#X connect 14 0 12 0;
#X connect 14 0 12 1;
#X connect 15 0 14 2;
#X connect 16 0 18 0;
#X connect 17 0 16 0;
#X connect 18 0 52 0;
#X connect 19 0 52 1;
#X connect 21 0 52 2;
#X connect 22 0 24 0;
#X connect 23 0 22 0;
#X connect 24 0 53 0;
#X connect 25 0 53 1;
#X connect 27 0 53 2;
#X connect 28 0 30 0;
#X connect 29 0 28 0;
#X connect 30 0 54 0;
#X connect 31 0 54 1;
#X connect 33 0 54 2;
#X connect 34 0 36 0;
#X connect 35 0 34 0;
#X connect 36 0 55 0;
#X connect 37 0 55 1;
#X connect 39 0 55 2;
#X connect 40 0 42 0;
#X connect 41 0 40 0;
#X connect 42 0 56 0;
#X connect 43 0 56 1;
#X connect 45 0 56 2;
#X connect 46 0 48 0;
#X connect 47 0 46 0;
#X connect 48 0 57 0;
#X connect 49 0 57 1;
#X connect 51 0 57 2;
#X connect 52 0 20 0;
#X connect 52 0 20 1;
#X connect 53 0 26 0;
#X connect 53 0 26 1;
#X connect 54 0 32 0;
#X connect 54 0 32 1;
#X connect 55 0 38 0;
#X connect 55 0 38 1;
#X connect 56 0 44 0;
#X connect 56 0 44 1;
#X connect 57 0 50 0;
#X connect 57 0 50 1;
