#N canvas 0 38 1512 916 12;
#X obj 324 660 dac~;
#X obj 163 235 tgl 19 0 empty empty empty 0 -10 0 12 #fcfcfc #000000 #000000 0 1;
#X obj 331 240 tgl 19 0 empty empty empty 0 -10 0 12 #fcfcfc #000000 #000000 0 1;
#X obj 273 326 *~;
#X obj 106 345 *~;
#X obj 162 180 sel 48;
#X obj 331 184 sel 50;
#X obj 210 132 notein;
#X obj 385 264 ctlin;
#X text 388 184 fuzz pedal;
#X text 91 182 no pedal;
#X obj 544 243 tgl 19 0 empty empty empty 0 -10 0 12 #fcfcfc #000000 #000000 0 1;
#X obj 525 311 *~;
#X obj 673 243 ctlin;
#X obj 675 293 / 127;
#X text 601 187 ov pedal;
#X obj 628 478 lop~ 3000;
#X obj 543 187 sel 52;
#X obj 385 308 / 127;
#X obj 336 469 clip~;
#X msg 41 785 read -resize guitar_sample.wav audioArray;
#N canvas 0 22 450 278 (subpatch) 0;
#X array audioArray 1.34554e+06 float 2;
#X coords 0 1 1.34554e+06 -1 200 140 1;
#X restore 356 734 graph;
#X obj 40 822 soundfiler;
#X obj 89 64 tabplay~ audioArray;
#X obj 89 16 bng 19 250 50 0 empty empty empty 0 -10 0 12 #fcfcfc #000000 #000000;
#X obj 70 126 *~ 1.85;
#X obj 328 402 * -0.3;
#X obj 391 402 * 0.3;
#X obj 628 434 expr~ $v1 * (1 - abs($v1) * 0.8);
#X obj 628 390 clip~;
#X obj 97 541 dac~;
#X obj 618 659 dac~;
#X obj 664 342 * -0.2;
#X obj 728 343 * 0.2;
#X obj 330 132 notein;
#X obj 540 132 notein;
#X obj 923 227 tgl 19 0 empty empty empty 0 -10 0 12 #fcfcfc #000000 #000000 0 1;
#X obj 905 275 *~;
#X obj 901 119 notein;
#X obj 930 505 vcf~;
#X obj 902 172 sel 54;
#X floatatom 1047 556 5 0 0 0 - - - 0;
#X obj 1047 413 vsl 15 128 0 20 0 0 empty empty empty 0 -9 0 10 #fcfcfc #000000 #000000 0 1;
#X obj 1101 265 hsl 128 15 700 6000 0 0 empty empty empty -2 -8 0 10 #fcfcfc #000000 #000000 0 1;
#X obj 1078 353 hsl 128 15 0 700 0 0 empty empty empty -2 -8 0 10 #fcfcfc #000000 #000000 0 1;
#X floatatom 1075 375 6 0 0 0 - - - 0;
#X floatatom 1098 314 6 0 0 0 - - - 0;
#X obj 1098 288 -;
#X obj 976 379 +~ 200;
#X obj 975 297 *~ 1500;
#X text 1233 263 <-- Maximum of the freq. range;
#X text 1211 350 <-- Minimum of the freq. range;
#X obj 975 214 ctlin;
#X obj 975 254 / 127;
#X obj 1149 186 loadbang;
#X msg 1171 399 200;
#X obj 1191 436 loadbang;
#X obj 1081 463 loadbang;
#X msg 1080 424 5;
#X msg 1098 226 1700;
#X text 822 173 wah pedal;
#X obj 42 744 loadbang;
#X obj 149 383 env~;
#X obj 107 486 /~;
#X obj 150 452 sig~;
#X obj 377 502 env~;
#X obj 378 571 sig~;
#X obj 335 601 /~;
#X obj 658 513 env~;
#X obj 659 582 sig~;
#X obj 630 616 /~;
#X obj 918 688 dac~;
#X obj 958 542 env~;
#X obj 959 611 sig~;
#X obj 930 645 /~;
#X obj 660 823 hsl 162 19 0 127 0 0 empty empty empty -2 -10 0 12 #fcfcfc #000000 #000000 0 1;
#X obj 150 419 /;
#X msg 712 774 80;
#X obj 712 743 loadbang;
#X floatatom 657 858 5 0 0 0 - - - 0;
#X obj 377 538 /;
#X obj 658 549 /;
#X obj 958 578 /;
#X text 833 824 volume slider;
#X obj 1709 583 dac~;
#X obj 1749 437 env~;
#X obj 1750 506 sig~;
#X obj 1721 540 /~;
#X obj 1749 472 /;
#X obj 1601 168 tabplay~ audioArray;
#X obj 1600 133 bng 19 250 50 0 empty empty empty 0 -10 0 12 #fcfcfc #000000 #000000;
#X obj 1602 200 *~ 1.85;
#X obj 1554 220 tgl 19 0 empty empty empty 0 -10 0 12 #fcfcfc #000000 #000000 0 1;
#X obj 1502 146 notein;
#X text 1413 177 delay pedal;
#X obj 1503 176 sel 56;
#X obj 1584 252 *~;
#X obj 1670 342 *~ 0.6;
#X text 3557 906 EOF;
#X obj 1781 273 ctlin;
#X obj 1781 313 / 127;
#X obj 1781 348 * 500;
#X obj 2024 347 rev1~;
#X obj 2041 179 tabplay~ audioArray;
#X obj 2040 144 bng 19 250 50 0 empty empty empty 0 -10 0 12 #fcfcfc #000000 #000000;
#X obj 2042 211 *~ 1.85;
#X obj 1994 231 tgl 19 0 empty empty empty 0 -10 0 12 #fcfcfc #000000 #000000 0 1;
#X obj 1942 157 notein;
#X obj 2024 263 *~;
#X obj 2013 532 dac~;
#X obj 2053 386 env~;
#X obj 2054 455 sig~;
#X obj 2025 489 /~;
#X obj 2136 207 ctlin;
#X obj 2136 247 / 127;
#X text 1846 187 reverb pedal;
#X obj 1584 301 delwrite~ delay 1000;
#X obj 1718 395 delread~ delay;
#X obj 2053 422 / 80;
#X obj 1943 187 sel 58;
#X obj 2136 288 * 70;
#X connect 1 0 4 1;
#X connect 2 0 3 1;
#X connect 3 0 19 0;
#X connect 4 0 62 0;
#X connect 4 0 63 0;
#X connect 5 0 1 0;
#X connect 6 0 2 0;
#X connect 7 0 5 0;
#X connect 8 0 18 0;
#X connect 11 0 12 1;
#X connect 12 0 29 0;
#X connect 13 0 14 0;
#X connect 14 0 32 0;
#X connect 14 0 33 0;
#X connect 16 0 68 0;
#X connect 16 0 70 0;
#X connect 17 0 11 0;
#X connect 18 0 26 0;
#X connect 18 0 27 0;
#X connect 19 0 65 0;
#X connect 19 0 67 0;
#X connect 20 0 22 0;
#X connect 23 0 25 0;
#X connect 24 0 23 0;
#X connect 25 0 4 0;
#X connect 25 0 3 0;
#X connect 25 0 12 0;
#X connect 25 0 37 0;
#X connect 26 0 19 1;
#X connect 27 0 19 2;
#X connect 28 0 16 0;
#X connect 29 0 28 0;
#X connect 32 0 29 1;
#X connect 33 0 29 2;
#X connect 34 0 6 0;
#X connect 35 0 17 0;
#X connect 36 0 37 1;
#X connect 37 0 39 0;
#X connect 38 0 40 0;
#X connect 39 0 72 0;
#X connect 39 0 74 0;
#X connect 40 0 36 0;
#X connect 42 0 41 0;
#X connect 42 0 39 2;
#X connect 43 0 47 0;
#X connect 44 0 45 0;
#X connect 44 0 47 1;
#X connect 44 0 48 1;
#X connect 47 0 46 0;
#X connect 47 0 49 1;
#X connect 48 0 39 1;
#X connect 49 0 48 0;
#X connect 52 0 53 0;
#X connect 53 0 49 0;
#X connect 54 0 59 0;
#X connect 55 0 44 0;
#X connect 56 0 55 0;
#X connect 57 0 58 0;
#X connect 58 0 42 0;
#X connect 59 0 43 0;
#X connect 61 0 20 0;
#X connect 62 0 76 0;
#X connect 63 0 30 0;
#X connect 63 0 30 1;
#X connect 64 0 63 1;
#X connect 65 0 80 0;
#X connect 66 0 67 1;
#X connect 67 0 0 0;
#X connect 67 0 0 1;
#X connect 68 0 81 0;
#X connect 69 0 70 1;
#X connect 70 0 31 0;
#X connect 70 0 31 1;
#X connect 72 0 82 0;
#X connect 73 0 74 1;
#X connect 74 0 71 0;
#X connect 74 0 71 1;
#X connect 75 0 79 0;
#X connect 75 0 76 1;
#X connect 75 0 80 1;
#X connect 75 0 81 1;
#X connect 75 0 82 1;
#X connect 75 0 88 1;
#X connect 76 0 64 0;
#X connect 77 0 75 0;
#X connect 78 0 77 0;
#X connect 80 0 66 0;
#X connect 81 0 69 0;
#X connect 82 0 73 0;
#X connect 85 0 88 0;
#X connect 86 0 87 1;
#X connect 87 0 84 0;
#X connect 87 0 84 1;
#X connect 88 0 86 0;
#X connect 89 0 91 0;
#X connect 90 0 89 0;
#X connect 91 0 96 1;
#X connect 92 0 96 0;
#X connect 93 0 95 0;
#X connect 95 0 92 0;
#X connect 96 0 116 0;
#X connect 97 0 116 0;
#X connect 99 0 100 0;
#X connect 100 0 101 0;
#X connect 101 0 117 0;
#X connect 102 0 110 0;
#X connect 102 0 112 0;
#X connect 103 0 105 0;
#X connect 104 0 103 0;
#X connect 105 0 108 1;
#X connect 106 0 108 0;
#X connect 107 0 119 0;
#X connect 108 0 102 0;
#X connect 110 0 118 0;
#X connect 111 0 112 1;
#X connect 112 0 109 0;
#X connect 112 0 109 1;
#X connect 113 0 114 0;
#X connect 114 0 120 0;
#X connect 117 0 87 0;
#X connect 117 0 85 0;
#X connect 117 0 97 0;
#X connect 118 0 111 0;
#X connect 119 0 106 0;
#X connect 120 0 102 1;
